<svg xmlns="http://www.w3.org/2000/svg" width="200" height="200"><g fill="none" fill-rule="evenodd"><path d="M0 0h200v200H0z"/><path fill="#CACFD2" fill-rule="nonzero" d="M133.66 143.6c-1.3-.88-2.61-1.74-3.92-2.61l-8.24-5.45-7.27-4.81c-.57-.37-1.13-.8-1.72-1.16a12.1 12.1 0 0 0-.6-.36c-.8-.46-1.7-.29-2.53.15l-1.76-1.08c1.82-2.2 2.74-4.6 2.75-7.01l.06-6.16v-.06c.02-4.25-2.76-8.52-8.37-11.81-11.24-6.6-29.68-6.79-40.96-.4-5.62 3.18-8.47 7.4-8.53 11.64l-.05 6.22c-.06 4.27 2.7 8.57 8.3 11.85 10.85 6.37 28.6 6.7 40.02.87l.12.08 4.32 2.62c.1 1.06.61 1.99 1.44 2.66l22.68 12.75c.6.32 1.4.24 2.25-.3a7.1 7.1 0 0 0 2.91-5.67c-.02-.98-.38-1.63-.9-1.97z" opacity=".32"/><path fill="#D6DDE1" fill-rule="nonzero" d="M64 104.11c9.57-5.41 25.23-5.26 34.77.34 3.77 2.22 6 4.95 6.78 7.78 1.27-4.32-.95-8.95-6.74-12.35-9.54-5.6-25.2-5.76-34.78-.34-5.8 3.28-8.1 7.87-6.92 12.2.83-2.81 3.11-5.5 6.88-7.63z"/><path fill="#DDE0E2" fill-rule="nonzero" d="M110.23 109.95a20.72 20.72 0 0 0-6.32-5.7c3.88 5.23 2.13 11.46-5.28 15.59-9.66 5.36-25.31 5.22-34.78-.35-7.3-4.28-8.9-10.59-4.87-15.74a20.66 20.66 0 0 0-6.5 5.64l-2.25-.02-.07 6.69c-.07 4.6 2.9 9.22 8.93 12.76 12 7.05 31.85 7.24 44.1.43 6.13-3.42 9.22-7.98 9.25-12.59l.06-6.68-2.27-.03z"/><path fill="#AEE1E5" fill-rule="nonzero" d="M98.8 102.2c-9.54-5.6-25.2-5.77-34.78-.35-9.57 5.42-9.66 14.4-.2 19.96 9.48 5.56 25.13 5.7 34.79.34 9.65-5.37 9.74-14.35.2-19.96z" opacity=".48"/><path stroke="#969EB2" stroke-width=".2" d="M105.83 111.05c-.44-3.2-2.78-6.36-7.03-8.85-9.55-5.6-25.21-5.76-34.79-.34-4.28 2.42-6.67 5.55-7.15 8.76" opacity=".46"/><path fill="#F1F4F5" fill-rule="nonzero" d="M103.5 97.26c-12.1-7.11-31.96-7.3-44.1-.43s-12.26 18.25-.24 25.29c12.01 7.04 31.85 7.25 44.09.43 12.24-6.81 12.36-18.2.24-25.3zm-4.87 22.57c-9.66 5.36-25.31 5.22-34.78-.34-9.47-5.57-9.38-14.54.2-19.96 9.57-5.42 25.23-5.26 34.77.34 9.55 5.6 9.46 14.6-.2 19.96z"/><path fill="#FFF" fill-rule="nonzero" d="M78.11 104.79c-2.4-1.41-6.33-1.45-8.74-.1s-2.43 3.62-.05 5.02a9.78 9.78 0 0 0 8.74.1c2.43-1.36 2.46-3.62.05-5.02z" opacity=".46"/><g fill-rule="nonzero"><path fill="#F9FBFC" d="M106.24 122.25c-.57-.37-1.37-.33-2.23.23a6.73 6.73 0 0 0-2.77 5.39c.05 1.02.45 1.7 1.07 1.97l6.63 4.02 3.92-7.57-6.62-4.04z"/><path fill="#DDE0E2" d="M114.74 125.6a10.94 10.94 0 0 0-.64-.38c-1.78-1-3.9.78-5.02 2.05-1.25 1.43-2.27 3.37-2.12 5.32.09 1.16.66 2.2 1.56 2.92l24.42 13.72 4.56-8.53-4.22-2.79-8.86-5.86-7.83-5.18c-.63-.42-1.24-.86-1.85-1.26z"/><path fill="#C3C8CA" d="M135 140.96a7.62 7.62 0 0 0-3.14 6.1c.1 2.18 1.67 3.02 3.5 1.84a7.59 7.59 0 0 0 3.13-6.1c-.1-2.18-1.67-3-3.5-1.84z"/></g></g></svg>